<mxfile host="app.diagrams.net" modified="2024-02-06T01:07:58.482Z" agent="Mozilla/5.0 (Windows NT 10.0; Win64; x64) AppleWebKit/537.36 (KHTML, like Gecko) Chrome/121.0.0.0 Safari/537.36 Edg/121.0.0.0" etag="32EeF01TzO4iuU28ofAV" version="23.1.1" type="device">
  <diagram name="Page-1" id="yexVqjzWTtGLjaNakG3Y">
    <mxGraphModel dx="2519" dy="3089" grid="1" gridSize="10" guides="1" tooltips="1" connect="1" arrows="1" fold="1" page="1" pageScale="1" pageWidth="850" pageHeight="1100" math="0" shadow="0">
      <root>
        <mxCell id="0" />
        <mxCell id="1" parent="0" />
        <mxCell id="jnHiDplncQ5lODW3lhRb-4" value="AWS Cloud" style="sketch=0;outlineConnect=0;html=1;whiteSpace=wrap;fontSize=12;fontStyle=0;shape=mxgraph.aws4.group;grIcon=mxgraph.aws4.group_aws_cloud;verticalAlign=top;align=left;spacingLeft=30;dashed=0;movable=1;resizable=1;rotatable=1;deletable=1;editable=1;locked=0;connectable=1;" parent="1" vertex="1">
          <mxGeometry x="150" y="-1700" width="550" height="510" as="geometry" />
        </mxCell>
        <mxCell id="jnHiDplncQ5lODW3lhRb-1" value="VPC" style="sketch=0;outlineConnect=0;html=1;whiteSpace=wrap;fontSize=12;fontStyle=0;shape=mxgraph.aws4.group;grIcon=mxgraph.aws4.group_vpc;strokeColor=#b46504;fillColor=none;verticalAlign=top;align=left;spacingLeft=30;dashed=0;" parent="1" vertex="1">
          <mxGeometry x="190" y="-1610" width="470" height="380" as="geometry" />
        </mxCell>
        <mxCell id="jnHiDplncQ5lODW3lhRb-8" value="Region - Oregon (us-west-2)" style="sketch=0;outlineConnect=0;html=1;whiteSpace=wrap;fontSize=12;fontStyle=0;shape=mxgraph.aws4.group;grIcon=mxgraph.aws4.group_region;strokeColor=#b85450;fillColor=none;verticalAlign=top;align=left;spacingLeft=30;dashed=1;movable=1;resizable=1;rotatable=1;deletable=1;editable=1;locked=0;connectable=1;" parent="1" vertex="1">
          <mxGeometry x="170" y="-1660" width="510" height="450" as="geometry" />
        </mxCell>
        <mxCell id="jnHiDplncQ5lODW3lhRb-11" value="" style="sketch=0;outlineConnect=0;fontColor=#232F3E;gradientColor=none;fillColor=#8C4FFF;strokeColor=none;dashed=0;verticalLabelPosition=bottom;verticalAlign=top;align=center;html=1;fontSize=12;fontStyle=0;aspect=fixed;pointerEvents=1;shape=mxgraph.aws4.internet_gateway;" parent="1" vertex="1">
          <mxGeometry x="391.75" y="-1648" width="68" height="68" as="geometry" />
        </mxCell>
        <mxCell id="jnHiDplncQ5lODW3lhRb-12" value="" style="group" parent="1" vertex="1" connectable="0">
          <mxGeometry x="210" y="-1540" width="430" height="290" as="geometry" />
        </mxCell>
        <mxCell id="jnHiDplncQ5lODW3lhRb-3" value="Availability zone - us-west-2a" style="sketch=0;outlineConnect=0;html=1;whiteSpace=wrap;fontSize=12;fontStyle=0;shape=mxgraph.aws4.group;grIcon=mxgraph.aws4.group_availability_zone;strokeColor=#56517e;fillColor=none;verticalAlign=top;align=left;spacingLeft=30;dashed=1;" parent="jnHiDplncQ5lODW3lhRb-12" vertex="1">
          <mxGeometry width="430" height="290" as="geometry" />
        </mxCell>
        <mxCell id="jnHiDplncQ5lODW3lhRb-5" value="Public subnet - 10.0.0.0/20" style="points=[[0,0],[0.25,0],[0.5,0],[0.75,0],[1,0],[1,0.25],[1,0.5],[1,0.75],[1,1],[0.75,1],[0.5,1],[0.25,1],[0,1],[0,0.75],[0,0.5],[0,0.25]];outlineConnect=0;gradientColor=none;html=1;whiteSpace=wrap;fontSize=12;fontStyle=0;container=1;pointerEvents=0;collapsible=0;recursiveResize=0;shape=mxgraph.aws4.group;grIcon=mxgraph.aws4.group_security_group;grStroke=0;strokeColor=#7AA116;fillColor=#F2F6E8;verticalAlign=top;align=left;spacingLeft=30;fontColor=#248814;dashed=0;" parent="jnHiDplncQ5lODW3lhRb-12" vertex="1">
          <mxGeometry x="22" y="36" width="170" height="240" as="geometry" />
        </mxCell>
        <mxCell id="jnHiDplncQ5lODW3lhRb-13" value="&lt;font style=&quot;font-size: 14px;&quot;&gt;Public &lt;br&gt;EC2 instance&amp;nbsp;&lt;br&gt;(Nginx)&lt;/font&gt;" style="points=[[0,0],[0.25,0],[0.5,0],[0.75,0],[1,0],[1,0.25],[1,0.5],[1,0.75],[1,1],[0.75,1],[0.5,1],[0.25,1],[0,1],[0,0.75],[0,0.5],[0,0.25]];outlineConnect=0;gradientColor=none;html=1;whiteSpace=wrap;fontSize=12;fontStyle=0;container=1;pointerEvents=0;collapsible=0;recursiveResize=0;shape=mxgraph.aws4.group;grIcon=mxgraph.aws4.group_ec2_instance_contents;strokeColor=#D86613;fillColor=none;verticalAlign=top;align=left;spacingLeft=30;fontColor=#D86613;dashed=0;" parent="jnHiDplncQ5lODW3lhRb-5" vertex="1">
          <mxGeometry x="25" y="87.5" width="120" height="65" as="geometry" />
        </mxCell>
        <mxCell id="hsNu5jYM7z4mAyNZWEtM-28" value="Security Group" style="fontStyle=0;verticalAlign=top;align=center;spacingTop=-2;fillColor=none;rounded=0;whiteSpace=wrap;html=1;strokeColor=#FF0000;strokeWidth=2;dashed=1;container=1;collapsible=0;expand=0;recursiveResize=0;" parent="jnHiDplncQ5lODW3lhRb-5" vertex="1">
          <mxGeometry x="10" y="57.5" width="150" height="150" as="geometry" />
        </mxCell>
        <mxCell id="hsNu5jYM7z4mAyNZWEtM-30" value="Allow SSH and HTTP &lt;br&gt;from everywhere" style="text;strokeColor=none;align=center;fillColor=none;html=1;verticalAlign=middle;whiteSpace=wrap;rounded=0;" parent="hsNu5jYM7z4mAyNZWEtM-28" vertex="1">
          <mxGeometry y="116" width="150" height="30" as="geometry" />
        </mxCell>
        <mxCell id="jnHiDplncQ5lODW3lhRb-7" value="Private subnet - 10.0.128.0/20" style="points=[[0,0],[0.25,0],[0.5,0],[0.75,0],[1,0],[1,0.25],[1,0.5],[1,0.75],[1,1],[0.75,1],[0.5,1],[0.25,1],[0,1],[0,0.75],[0,0.5],[0,0.25]];outlineConnect=0;gradientColor=none;html=1;whiteSpace=wrap;fontSize=12;fontStyle=0;container=1;pointerEvents=0;collapsible=0;recursiveResize=0;shape=mxgraph.aws4.group;grIcon=mxgraph.aws4.group_security_group;grStroke=0;strokeColor=#00A4A6;fillColor=#E6F6F7;verticalAlign=top;align=left;spacingLeft=30;fontColor=#147EBA;dashed=0;" parent="jnHiDplncQ5lODW3lhRb-12" vertex="1">
          <mxGeometry x="240" y="36" width="170" height="240" as="geometry" />
        </mxCell>
        <mxCell id="hsNu5jYM7z4mAyNZWEtM-29" value="Security Group" style="fontStyle=0;verticalAlign=top;align=center;spacingTop=-2;fillColor=none;rounded=0;whiteSpace=wrap;html=1;strokeColor=#FF0000;strokeWidth=2;dashed=1;container=1;collapsible=0;expand=0;recursiveResize=0;" parent="jnHiDplncQ5lODW3lhRb-7" vertex="1">
          <mxGeometry x="10" y="57.5" width="150" height="150" as="geometry" />
        </mxCell>
        <mxCell id="hsNu5jYM7z4mAyNZWEtM-31" value="Allow SSH and HTTP &lt;br&gt;from within the VPC&lt;br&gt;(All other inbound traffic is denied)" style="text;strokeColor=none;align=center;fillColor=none;html=1;verticalAlign=middle;whiteSpace=wrap;rounded=0;" parent="hsNu5jYM7z4mAyNZWEtM-29" vertex="1">
          <mxGeometry x="-20" y="102" width="190" height="50" as="geometry" />
        </mxCell>
        <mxCell id="oLUIcf6-z-6LXCvlSGGR-16" value="" style="endArrow=classic;startArrow=classic;html=1;rounded=0;exitX=1;exitY=0.5;exitDx=0;exitDy=0;" parent="jnHiDplncQ5lODW3lhRb-12" source="jnHiDplncQ5lODW3lhRb-13" target="jnHiDplncQ5lODW3lhRb-14" edge="1">
          <mxGeometry width="50" height="50" relative="1" as="geometry">
            <mxPoint x="530" y="140" as="sourcePoint" />
            <mxPoint x="580" y="90" as="targetPoint" />
          </mxGeometry>
        </mxCell>
        <mxCell id="hsNu5jYM7z4mAyNZWEtM-26" value="" style="verticalLabelPosition=bottom;shadow=0;dashed=0;align=center;html=1;verticalAlign=top;strokeWidth=1;shape=mxgraph.mockup.markup.line;strokeColor=#000000;" parent="jnHiDplncQ5lODW3lhRb-12" vertex="1">
          <mxGeometry x="-93" y="146" width="140" height="20" as="geometry" />
        </mxCell>
        <mxCell id="jnHiDplncQ5lODW3lhRb-14" value="&lt;font style=&quot;&quot;&gt;&lt;font style=&quot;font-size: 14px;&quot;&gt;Private&lt;/font&gt;&lt;br&gt;&lt;font style=&quot;font-size: 14px;&quot;&gt;EC2 instance&lt;/font&gt;&lt;/font&gt;&lt;font style=&quot;font-size: 14px;&quot;&gt;&amp;nbsp;&lt;/font&gt;" style="points=[[0,0],[0.25,0],[0.5,0],[0.75,0],[1,0],[1,0.25],[1,0.5],[1,0.75],[1,1],[0.75,1],[0.5,1],[0.25,1],[0,1],[0,0.75],[0,0.5],[0,0.25]];outlineConnect=0;gradientColor=none;html=1;whiteSpace=wrap;fontSize=12;fontStyle=0;container=1;pointerEvents=0;collapsible=0;recursiveResize=0;shape=mxgraph.aws4.group;grIcon=mxgraph.aws4.group_ec2_instance_contents;strokeColor=#D86613;fillColor=none;verticalAlign=top;align=left;spacingLeft=30;fontColor=#D86613;dashed=0;" parent="jnHiDplncQ5lODW3lhRb-12" vertex="1">
          <mxGeometry x="265" y="123.5" width="120" height="65" as="geometry" />
        </mxCell>
        <mxCell id="jnHiDplncQ5lODW3lhRb-15" value="" style="outlineConnect=0;dashed=0;verticalLabelPosition=bottom;verticalAlign=top;align=center;html=1;shape=mxgraph.aws3.internet_2;fillColor=#429eff;strokeColor=#36393d;" parent="1" vertex="1">
          <mxGeometry x="386" y="-1800" width="79.5" height="54" as="geometry" />
        </mxCell>
        <mxCell id="oLUIcf6-z-6LXCvlSGGR-2" value="" style="sketch=0;outlineConnect=0;fontColor=#232F3E;gradientColor=none;fillColor=#232F3D;strokeColor=none;dashed=0;verticalLabelPosition=bottom;verticalAlign=top;align=center;html=1;fontSize=12;fontStyle=0;aspect=fixed;pointerEvents=1;shape=mxgraph.aws4.user;" parent="1" vertex="1">
          <mxGeometry x="386" y="-1950" width="78" height="78" as="geometry" />
        </mxCell>
        <mxCell id="oLUIcf6-z-6LXCvlSGGR-7" value="Internet Gateway" style="text;strokeColor=none;align=center;fillColor=none;html=1;verticalAlign=middle;whiteSpace=wrap;rounded=0;" parent="1" vertex="1">
          <mxGeometry x="395.75" y="-1580" width="60" height="30" as="geometry" />
        </mxCell>
        <mxCell id="oLUIcf6-z-6LXCvlSGGR-10" value="Internet" style="text;strokeColor=none;align=center;fillColor=none;html=1;verticalAlign=middle;whiteSpace=wrap;rounded=0;" parent="1" vertex="1">
          <mxGeometry x="395.75" y="-1746" width="60" height="30" as="geometry" />
        </mxCell>
        <mxCell id="oLUIcf6-z-6LXCvlSGGR-13" value="" style="endArrow=classic;startArrow=classic;html=1;rounded=0;" parent="1" source="jnHiDplncQ5lODW3lhRb-15" target="oLUIcf6-z-6LXCvlSGGR-2" edge="1">
          <mxGeometry width="50" height="50" relative="1" as="geometry">
            <mxPoint x="150" y="-1760" as="sourcePoint" />
            <mxPoint x="200" y="-1810" as="targetPoint" />
          </mxGeometry>
        </mxCell>
        <mxCell id="oLUIcf6-z-6LXCvlSGGR-14" value="" style="endArrow=classic;startArrow=classic;html=1;rounded=0;" parent="1" source="jnHiDplncQ5lODW3lhRb-11" target="jnHiDplncQ5lODW3lhRb-15" edge="1">
          <mxGeometry width="50" height="50" relative="1" as="geometry">
            <mxPoint x="436" y="-1790" as="sourcePoint" />
            <mxPoint x="435" y="-1862" as="targetPoint" />
          </mxGeometry>
        </mxCell>
        <mxCell id="oLUIcf6-z-6LXCvlSGGR-15" value="" style="endArrow=classic;startArrow=classic;html=1;rounded=0;exitX=0.5;exitY=0;exitDx=0;exitDy=0;" parent="1" source="jnHiDplncQ5lODW3lhRb-13" target="jnHiDplncQ5lODW3lhRb-11" edge="1">
          <mxGeometry width="50" height="50" relative="1" as="geometry">
            <mxPoint x="424" y="-1519" as="sourcePoint" />
            <mxPoint x="425" y="-1590" as="targetPoint" />
            <Array as="points">
              <mxPoint x="426" y="-1500" />
            </Array>
          </mxGeometry>
        </mxCell>
        <mxCell id="hsNu5jYM7z4mAyNZWEtM-1" value="" style="shape=table;startSize=0;container=1;collapsible=0;childLayout=tableLayout;" parent="1" vertex="1">
          <mxGeometry x="-24" y="-1414" width="140" height="60" as="geometry" />
        </mxCell>
        <mxCell id="hsNu5jYM7z4mAyNZWEtM-2" value="" style="shape=tableRow;horizontal=0;startSize=0;swimlaneHead=0;swimlaneBody=0;strokeColor=inherit;top=0;left=0;bottom=0;right=0;collapsible=0;dropTarget=0;fillColor=none;points=[[0,0.5],[1,0.5]];portConstraint=eastwest;" parent="hsNu5jYM7z4mAyNZWEtM-1" vertex="1">
          <mxGeometry width="140" height="20" as="geometry" />
        </mxCell>
        <mxCell id="hsNu5jYM7z4mAyNZWEtM-3" value="Destination" style="shape=partialRectangle;html=1;whiteSpace=wrap;connectable=0;strokeColor=inherit;overflow=hidden;fillColor=none;top=0;left=0;bottom=0;right=0;pointerEvents=1;" parent="hsNu5jYM7z4mAyNZWEtM-2" vertex="1">
          <mxGeometry width="70" height="20" as="geometry">
            <mxRectangle width="70" height="20" as="alternateBounds" />
          </mxGeometry>
        </mxCell>
        <mxCell id="hsNu5jYM7z4mAyNZWEtM-4" value="Target" style="shape=partialRectangle;html=1;whiteSpace=wrap;connectable=0;strokeColor=inherit;overflow=hidden;fillColor=none;top=0;left=0;bottom=0;right=0;pointerEvents=1;" parent="hsNu5jYM7z4mAyNZWEtM-2" vertex="1">
          <mxGeometry x="70" width="70" height="20" as="geometry">
            <mxRectangle width="70" height="20" as="alternateBounds" />
          </mxGeometry>
        </mxCell>
        <mxCell id="hsNu5jYM7z4mAyNZWEtM-5" value="" style="shape=tableRow;horizontal=0;startSize=0;swimlaneHead=0;swimlaneBody=0;strokeColor=inherit;top=0;left=0;bottom=0;right=0;collapsible=0;dropTarget=0;fillColor=none;points=[[0,0.5],[1,0.5]];portConstraint=eastwest;" parent="hsNu5jYM7z4mAyNZWEtM-1" vertex="1">
          <mxGeometry y="20" width="140" height="20" as="geometry" />
        </mxCell>
        <mxCell id="hsNu5jYM7z4mAyNZWEtM-6" value="10.0.0.0/16" style="shape=partialRectangle;html=1;whiteSpace=wrap;connectable=0;strokeColor=inherit;overflow=hidden;fillColor=none;top=0;left=0;bottom=0;right=0;pointerEvents=1;" parent="hsNu5jYM7z4mAyNZWEtM-5" vertex="1">
          <mxGeometry width="70" height="20" as="geometry">
            <mxRectangle width="70" height="20" as="alternateBounds" />
          </mxGeometry>
        </mxCell>
        <mxCell id="hsNu5jYM7z4mAyNZWEtM-7" value="local" style="shape=partialRectangle;html=1;whiteSpace=wrap;connectable=0;strokeColor=inherit;overflow=hidden;fillColor=none;top=0;left=0;bottom=0;right=0;pointerEvents=1;" parent="hsNu5jYM7z4mAyNZWEtM-5" vertex="1">
          <mxGeometry x="70" width="70" height="20" as="geometry">
            <mxRectangle width="70" height="20" as="alternateBounds" />
          </mxGeometry>
        </mxCell>
        <mxCell id="hsNu5jYM7z4mAyNZWEtM-8" value="" style="shape=tableRow;horizontal=0;startSize=0;swimlaneHead=0;swimlaneBody=0;strokeColor=inherit;top=0;left=0;bottom=0;right=0;collapsible=0;dropTarget=0;fillColor=none;points=[[0,0.5],[1,0.5]];portConstraint=eastwest;" parent="hsNu5jYM7z4mAyNZWEtM-1" vertex="1">
          <mxGeometry y="40" width="140" height="20" as="geometry" />
        </mxCell>
        <mxCell id="hsNu5jYM7z4mAyNZWEtM-9" value="0.0.0.0/0" style="shape=partialRectangle;html=1;whiteSpace=wrap;connectable=0;strokeColor=inherit;overflow=hidden;fillColor=none;top=0;left=0;bottom=0;right=0;pointerEvents=1;" parent="hsNu5jYM7z4mAyNZWEtM-8" vertex="1">
          <mxGeometry width="70" height="20" as="geometry">
            <mxRectangle width="70" height="20" as="alternateBounds" />
          </mxGeometry>
        </mxCell>
        <mxCell id="hsNu5jYM7z4mAyNZWEtM-10" value="igw-id" style="shape=partialRectangle;html=1;whiteSpace=wrap;connectable=0;strokeColor=inherit;overflow=hidden;fillColor=none;top=0;left=0;bottom=0;right=0;pointerEvents=1;" parent="hsNu5jYM7z4mAyNZWEtM-8" vertex="1">
          <mxGeometry x="70" width="70" height="20" as="geometry">
            <mxRectangle width="70" height="20" as="alternateBounds" />
          </mxGeometry>
        </mxCell>
        <mxCell id="hsNu5jYM7z4mAyNZWEtM-12" value="" style="shape=table;startSize=0;container=1;collapsible=0;childLayout=tableLayout;" parent="1" vertex="1">
          <mxGeometry x="746" y="-1404" width="140" height="40" as="geometry" />
        </mxCell>
        <mxCell id="hsNu5jYM7z4mAyNZWEtM-13" value="" style="shape=tableRow;horizontal=0;startSize=0;swimlaneHead=0;swimlaneBody=0;strokeColor=inherit;top=0;left=0;bottom=0;right=0;collapsible=0;dropTarget=0;fillColor=none;points=[[0,0.5],[1,0.5]];portConstraint=eastwest;" parent="hsNu5jYM7z4mAyNZWEtM-12" vertex="1">
          <mxGeometry width="140" height="20" as="geometry" />
        </mxCell>
        <mxCell id="hsNu5jYM7z4mAyNZWEtM-14" value="Destination" style="shape=partialRectangle;html=1;whiteSpace=wrap;connectable=0;strokeColor=inherit;overflow=hidden;fillColor=none;top=0;left=0;bottom=0;right=0;pointerEvents=1;" parent="hsNu5jYM7z4mAyNZWEtM-13" vertex="1">
          <mxGeometry width="70" height="20" as="geometry">
            <mxRectangle width="70" height="20" as="alternateBounds" />
          </mxGeometry>
        </mxCell>
        <mxCell id="hsNu5jYM7z4mAyNZWEtM-15" value="Target" style="shape=partialRectangle;html=1;whiteSpace=wrap;connectable=0;strokeColor=inherit;overflow=hidden;fillColor=none;top=0;left=0;bottom=0;right=0;pointerEvents=1;" parent="hsNu5jYM7z4mAyNZWEtM-13" vertex="1">
          <mxGeometry x="70" width="70" height="20" as="geometry">
            <mxRectangle width="70" height="20" as="alternateBounds" />
          </mxGeometry>
        </mxCell>
        <mxCell id="hsNu5jYM7z4mAyNZWEtM-16" value="" style="shape=tableRow;horizontal=0;startSize=0;swimlaneHead=0;swimlaneBody=0;strokeColor=inherit;top=0;left=0;bottom=0;right=0;collapsible=0;dropTarget=0;fillColor=none;points=[[0,0.5],[1,0.5]];portConstraint=eastwest;" parent="hsNu5jYM7z4mAyNZWEtM-12" vertex="1">
          <mxGeometry y="20" width="140" height="20" as="geometry" />
        </mxCell>
        <mxCell id="hsNu5jYM7z4mAyNZWEtM-17" value="10.0.0.0/16" style="shape=partialRectangle;html=1;whiteSpace=wrap;connectable=0;strokeColor=inherit;overflow=hidden;fillColor=none;top=0;left=0;bottom=0;right=0;pointerEvents=1;" parent="hsNu5jYM7z4mAyNZWEtM-16" vertex="1">
          <mxGeometry width="70" height="20" as="geometry">
            <mxRectangle width="70" height="20" as="alternateBounds" />
          </mxGeometry>
        </mxCell>
        <mxCell id="hsNu5jYM7z4mAyNZWEtM-18" value="local" style="shape=partialRectangle;html=1;whiteSpace=wrap;connectable=0;strokeColor=inherit;overflow=hidden;fillColor=none;top=0;left=0;bottom=0;right=0;pointerEvents=1;" parent="hsNu5jYM7z4mAyNZWEtM-16" vertex="1">
          <mxGeometry x="70" width="70" height="20" as="geometry">
            <mxRectangle width="70" height="20" as="alternateBounds" />
          </mxGeometry>
        </mxCell>
        <mxCell id="hsNu5jYM7z4mAyNZWEtM-27" value="" style="verticalLabelPosition=bottom;shadow=0;dashed=0;align=center;html=1;verticalAlign=top;strokeWidth=1;shape=mxgraph.mockup.markup.line;strokeColor=#000000;" parent="1" vertex="1">
          <mxGeometry x="596" y="-1394" width="150" height="20" as="geometry" />
        </mxCell>
      </root>
    </mxGraphModel>
  </diagram>
</mxfile>
